<?xml version="1.0" encoding="utf-8"?>
<!-- Generator: Adobe Illustrator 24.1.1, SVG Export Plug-In . SVG Version: 6.00 Build 0)  -->
<svg version="1.1" id="Layer_1" xmlns="http://www.w3.org/2000/svg" xmlns:xlink="http://www.w3.org/1999/xlink" x="0px" y="0px"
	 viewBox="0 0 80 18.1" style="enable-background:new 0 0 80 18.1;" xml:space="preserve">
<style type="text/css">
	.st0{fill:#212121;}
</style>
<g>
	<g>
		<rect x="42.3" y="0.1" class="st0" width="3.3" height="2.5"/>
		<rect x="42.2" y="4.2" class="st0" width="3.3" height="13.9"/>
	</g>
	<g>
		<rect x="11.6" y="0.1" class="st0" width="3.3" height="2.5"/>
		<rect x="11.6" y="4.2" class="st0" width="3.3" height="13.9"/>
	</g>
	<path class="st0" d="M34.5,4.2h0.7c3.3,0,4.9,1.4,4.9,4.2h-3.3c0-1-0.5-1.5-1.6-1.5h-0.7c-1.1,0-1.6,0.5-1.6,1.5s0.5,1.4,1.6,1.4
		h0.8c3.3,0,4.9,1.4,4.9,4.2s-1.6,4.2-4.9,4.2h-0.8c-3.3,0-4.9-1.4-4.9-4.2h3.3c0,1,0.5,1.5,1.6,1.5h0.8c1.1,0,1.6-0.5,1.6-1.5
		s-0.5-1.4-1.6-1.4h-0.8c-3.3,0-4.9-1.4-4.9-4.2S31.2,4.2,34.5,4.2z"/>
	<path class="st0" d="M24.2,18.1V8.4c0-0.9-0.5-1.1-1.6-1.1c-0.8,0-1.7,0.1-2.5,0.4v10.4h-3.3V4.2h3.3v1.2c0.8-0.7,1.9-1.1,3-1
		c3,0,4.4,1.1,4.4,3.9V18L24.2,18.1z"/>
	<path class="st0" d="M68.4,12.5V8.4c0-2.8-1.6-3.9-4.9-3.9h-0.8c-3.3,0-4.9,1.1-4.9,3.9v5.6c0,2.8,1.6,4.2,4.9,4.2h0.8
		c3.3,0,4.9-1.4,4.9-4.2h-3.3c0,0.9-0.5,1.4-1.6,1.4h-0.8c-1.1,0-1.6-0.5-1.6-1.4v-1.4H68.4z M61,8.4c0-0.9,0.5-1.1,1.6-1.1h0.8
		c1.1,0,1.6,0.2,1.6,1.1v1.4H61V8.4z"/>
	<path class="st0" d="M49.2,7.2h-1.6V4.4h1.6V1.7l3.3-1.4v4.1h3.3v2.8h-3.3v6.7c0,0.9,0.6,1.4,1.6,1.4h1.6l-1.6,2.8
		c-3.3,0-4.9-1.4-4.9-4.2V7.2z"/>
</g>
</svg>
